# xmcd
#
# Track frame offsets:
#	150
#	19200
#	30600
#	44888
#	57188
#	70613
#	80475
#	97275
#	115200
#	131588
#	146025
#	166088
#	181988
#	197438
#	211275
#
# Disc length: 3043 seconds
#
# Revision: 0
# Processed by: cddbd v1.5.2PL0 Copyright (c) Steve Scherf et al.
# Submitted via: audiograbber 1.83.01
#
DISCID=d70be10f
DTITLE=Various Artist - All-Star Merry Christmas
DYEAR=1991
DGENRE=Christmas
TTITLE0=Joe Williams - Jingle Bells
TTITLE1=Diahann Carroll - Deck The Halls
TTITLE2=Vic Damone - Winter Wonderland
TTITLE3=Patti Page - Frosty The Snowman
TTITLE4=Jack Jones - O Holy Night
TTITLE5=DiahannCarroll - We Wish You A Merry Christmas
TTITLE6=Joe Williams - I'll Be Home For Christmas
TTITLE7=Vic Damone - What Are You Doing New Year's Eve
TTITLE8=Patti Page - Christmas Bells
TTITLE9=Jack Jones - White Christmas
TTITLE10=Diahann Carroll - Have Yourself A Merry Little Christmas
TTITLE11=Vic Damone - The Bells Of Saint Mary's
TTITLE12=Jack Jones - O Come, All Ye Faithful
TTITLE13=Patti Page - It Came Upon A Midnight Clear
TTITLE14=Joe Williams - Joy To The World
EXTD=
EXTT0=
EXTT1=
EXTT2=
EXTT3=
EXTT4=
EXTT5=
EXTT6=
EXTT7=
EXTT8=
EXTT9=
EXTT10=
EXTT11=
EXTT12=
EXTT13=
EXTT14=
PLAYORDER=
